<svg xmlns="http://www.w3.org/2000/svg" width="880" height="380" viewBox="0 0 880 380" role="img" aria-label="Little Lemon API">
<defs><linearGradient id="g" x1="0" y1="0" x2="1" y2="1"><stop offset="0" stop-color="#EAB308" stop-opacity=".22"/><stop offset=".55" stop-color="#161B22" stop-opacity="0"/></linearGradient>
<style>.s{font-family:'Segoe UI', Ubuntu, 'Helvetica Neue', Arial, sans-serif}</style></defs>
<rect width="880" height="380" rx="22" fill="#161B22"/>
<rect width="880" height="380" rx="22" fill="url(#g)"/>
<rect x="1" y="1" width="878" height="378" rx="21" fill="none" stroke="#30363D" stroke-width="2"/>
<rect x="0" y="0" width="880" height="6" rx="3" fill="#EAB308"><animate attributeName="opacity" values="1;.55;1" dur="3s" repeatCount="indefinite"/></rect>
<g transform="translate(48 64)">
 <rect width="78" height="78" rx="20" fill="#EAB308" fill-opacity=".16" stroke="#EAB308" stroke-opacity=".6"/>
 <text x="39" y="53" text-anchor="middle" font-size="40" class="s" fill="#E6EDF3">🍋</text>
</g>
<text x="150" y="98" class="s" font-size="38" font-weight="800" fill="#E6EDF3">Little Lemon API</text>
<g transform="translate(150 116)"><circle cx="7" cy="9" r="6" fill="#EAB308"><animate attributeName="opacity" values="1;.3;1" dur="2s" repeatCount="indefinite"/></circle>
<text x="22" y="15" class="s" font-size="17" font-weight="600" fill="#8B949E">Capstone · Meta Back-End</text></g>
<text x="48" y="208" class="s" font-size="22" fill="#E6EDF3">API REST de reservas y menú de un restaurante</text>
<text x="48" y="240" class="s" font-size="22" fill="#E6EDF3">con Django REST Framework y MySQL.</text>
<g transform="translate(48 292)"><g transform="translate(0 0)"><rect width="94" height="34" rx="17" fill="#EAB308" fill-opacity=".14" stroke="#EAB308" stroke-opacity=".5"/><text x="47.0" y="23" text-anchor="middle" class="s" font-size="15" font-weight="600" fill="#E6EDF3">Django</text></g><g transform="translate(106 0)"><rect width="64" height="34" rx="17" fill="#EAB308" fill-opacity=".14" stroke="#EAB308" stroke-opacity=".5"/><text x="32.0" y="23" text-anchor="middle" class="s" font-size="15" font-weight="600" fill="#E6EDF3">DRF</text></g><g transform="translate(182 0)"><rect width="84" height="34" rx="17" fill="#EAB308" fill-opacity=".14" stroke="#EAB308" stroke-opacity=".5"/><text x="42.0" y="23" text-anchor="middle" class="s" font-size="15" font-weight="600" fill="#E6EDF3">MySQL</text></g><g transform="translate(278 0)"><rect width="84" height="34" rx="17" fill="#EAB308" fill-opacity=".14" stroke="#EAB308" stroke-opacity=".5"/><text x="42.0" y="23" text-anchor="middle" class="s" font-size="15" font-weight="600" fill="#E6EDF3">Tests</text></g></g>
<text x="832" y="98" text-anchor="end" class="s" font-size="26" fill="#EAB308">↗</text>
</svg>